<svg width="512" height="512" viewBox="0 0 512 512" xmlns="http://www.w3.org/2000/svg"><title>Artboard</title><path d="M91 398.8l17.8-35.5h84.6l.4 35.2.3 35.2 66.5.4 66.5.3 17.8-35.5 17.8-35.6H448v71.1h62.6v-357l-46.6.4-46.6.3L337.1 254l-80.4 175.9-.3-176.2-.4-176.2-46.3.4-46.2.3-81 177.1a24305 24305 0 0 0-81 178.1c0 .6 16.1 1.1 35.9 1.1h35.9L91 398.8zm52.5-111.2c10.4-23.2 49-107.1 49.4-107.7.3-.3.5 25.8.5 58v58.5h-53.9l4-8.8zm250.5 8.3c0-.4 33-72.9 51.3-112.5 2.6-5.7 2.6-5.2 2.7 53.7v59.3h-27c-14.9 0-27-.2-27-.5z"/></svg>