<svg height="27" width="132" xmlns="http://www.w3.org/2000/svg"><g fill="none" fill-rule="evenodd"><path d="M83.763 18.948h3.315c-.114-.776-.724-1.145-1.6-1.145-.839 0-1.487.37-1.715 1.145zm1.677-2.437c2.058 0 3.315 1.218 3.087 3.693h-4.764c.114.738.762 1.255 1.829 1.255.572 0 1.296-.221 1.639-.554l.953.923c-.648.665-1.715.96-2.63.96-2.096 0-3.354-1.292-3.354-3.175 0-1.81 1.258-3.102 3.24-3.102zm6.098 4.837c.229 0 .533-.073.762-.221l.42 1.255c-.458.185-.801.259-1.258.259-1.334.037-2.211-.702-2.211-2.179v-5.318l1.525-.148v1.7h1.677v1.255h-1.716v2.548c0 .59.343.85.8.85zm11.472-4.8c.648 0 1.182.147 1.525.443l-.686 1.255c-.305-.221-.534-.295-1.03-.295-.8 0-1.524.406-1.524 1.514v3.139h-1.524v-5.909h1.41l.114.702c.457-.739 1.105-.85 1.715-.85zm4.46 4.837c1.105 0 1.677-.812 1.677-1.735 0-.924-.648-1.773-1.677-1.773-1.106 0-1.677.886-1.677 1.773 0 .886.571 1.735 1.677 1.735zm0-4.8c1.943 0 3.201 1.366 3.201 3.102 0 1.735-1.22 3.102-3.201 3.102-1.982 0-3.164-1.404-3.164-3.102 0-1.7 1.22-3.103 3.164-3.103zm8.385 3.138h-.038v-3.028h1.486v5.946h-1.334l-.114-.813c-.61.591-1.22.887-2.058.887-1.449 0-2.516-1.071-2.516-2.918v-3.102h1.525v3.102c0 .887.533 1.588 1.486 1.588.915 0 1.563-.775 1.563-1.662zm5.831-3.139c1.449 0 2.592 1.071 2.592 2.918v3.102h-1.525v-3.102c0-.886-.533-1.588-1.486-1.588-.915 0-1.563.775-1.563 1.662v3.028h-1.486v-5.946h1.334l.114.813c.648-.591 1.258-.887 2.02-.887zm6.442 4.801c.952 0 1.791-.664 1.791-1.735 0-1.034-.839-1.736-1.791-1.736-.991 0-1.754.665-1.754 1.736 0 1.034.8 1.735 1.754 1.735zm1.867-7.164h1.525v8.383h-1.41l-.115-.812c-.495.701-1.22.96-1.982.96-1.83 0-3.163-1.145-3.163-3.102 0-2.032 1.334-3.102 3.125-3.102.648 0 1.677.332 2.02.96V14.22zm-33.312 7.017c.038 0 .077-.037.115-.037.19-.148.343-.37.419-.591.038-.111.076-.185.076-.296.038-.074.038-.184.038-.295 0-.037 0-.037-.038-.037h-.076c-.076.037-.114.037-.19.037-.267.037-.496.037-.725.074-.42.037-.876.074-1.258.258a.556.556 0 0 0-.343.222.412.412 0 0 0-.114.295c0 .111 0 .222.076.333a.852.852 0 0 0 .496.295c.305.074.61 0 .876-.037.229-.037.458-.11.648-.221zm1.22-4.469c.61.37.953.923 1.067 1.588.038.886 0 1.81 0 2.696v1.514h-1.563v-.554c-.19.148-.304.259-.457.332-.953.591-2.63.407-3.316-.406-.648-.775-.457-2.326.839-2.659.686-.184 1.715-.258 2.4-.406.153-.037.496-.074.496-.221.038-.296 0-.407-.19-.591-.381-.37-.991-.37-1.449-.296-.61.111-.838.333-.952 1.034l-1.449-.332c.038-.923.648-1.662 1.64-1.92.761-.185 2.21-.185 2.934.221zm-15.741-.185s-.153.96-1.106 1.33H78.388c-1.105 0-1.677.886-1.677 1.773 0 .886.572 1.735 1.677 1.735 1.106 0 1.677-.85 1.677-1.735 0-.48-.19-.96-.533-1.293h1.791c.153.37.267.812.267 1.293 0 .96-.42 1.846-1.105 2.4.876.517 1.105 1.182 1.105 1.92 0 1.7-1.334 2.733-3.163 2.733-1.678 0-3.012-.923-3.164-2.4l1.525-.148c.076.702.8 1.145 1.639 1.145.914 0 1.6-.48 1.6-1.33s-.838-1.218-1.6-1.218h-.039c-1.982 0-3.163-1.404-3.163-3.102 0-1.7 1.22-3.103 3.163-3.103z" fill="#b01aa7" fill-rule="nonzero"/><path d="M38.467-6.831l-8.355 3.46v4.31l15.211-6.307v-2.926L30.113-14.6v4.309l8.355 3.46zm-1.498 41.28l8.355-3.474V26.68l-15.211 6.305V35.9l15.212 6.305V37.91l-8.355-3.46zm-44.29-20.544l-3.477-8.33h-4.329l6.335 15.155h2.94L.484 5.575h-4.329l-3.477 8.33zm84.307-1.491l3.49 8.316h4.316L78.457 5.575h-2.928L69.194 20.73h4.315z"/><path d="M18.417 6.573h4.33v15.155h-4.33zm-6.348.575c-.935-.56-2.075-.89-3.436-.89-4.521 0-8.176 3.516-8.149 7.852-.027 4.336 3.628 7.851 8.149 7.851 1.36 0 2.515-.328 3.436-.889v.602h4.218V1.704h-4.218zM8.783 18.459c-2.35 0-4.287-1.928-4.287-4.294v-.028a4.298 4.298 0 0 1 4.287-4.295c.784 0 1.498.22 2.103.602.453.26.852.602 1.182.999v5.498a4.348 4.348 0 0 1-3.285 1.518zm21.52-11.927h4.329v15.155h-4.329zm13.797 8.33l-3.476-8.33h-4.33l6.336 15.155h2.94l6.336-15.155h-4.329zM32.46.938a2.329 2.329 0 0 1 2.337 2.325 2.329 2.329 0 0 1-2.336 2.326 2.329 2.329 0 0 1-2.336-2.326A2.329 2.329 0 0 1 32.461.938zM26.456 6.19a2.335 2.335 0 0 0-2.625 2.613 2.327 2.327 0 0 0 2.006 1.997 2.335 2.335 0 0 0 2.625-2.613c-.124-1.025-.962-1.86-2.006-1.997zm38.409.342l-3.477 8.317-3.477-8.317h-4.328l5.305 12.693c.206.507.206 1.081 0 1.587l-2.446 5.854h4.328l2.09-4.992 6.334-15.155h-4.328v.013z" fill="#262959"/><path d="M76.59 9.389v.449h-.953v-7.42h.984v2.937a2.295 2.295 0 0 1 1.491-.533 2.3 2.3 0 0 1 1.192.314 2.6 2.6 0 0 1 1.253 2.246c0 .983-.508 1.798-1.243 2.237a2.479 2.479 0 0 1-1.222.323 2.22 2.22 0 0 1-1.502-.553zm.03-2.926v1.839c.332.45.84.7 1.337.7.943 0 1.616-.742 1.616-1.62 0-.857-.622-1.62-1.564-1.62a1.75 1.75 0 0 0-1.388.7zm6.216 5.883H81.79l1.315-3.02-2.082-4.4h1.057l1.522 3.24 1.399-3.24h1.036z" fill="#b01aa7" fill-rule="nonzero"/></g></svg>
