<svg xmlns="http://www.w3.org/2000/svg" viewBox="0 0 753.65 172.38"><style>.st0{fill:#b01aa7}.st4{display:inline;fill:#d3d3d3}</style><g id="LogoWork"><path class="st0" d="M136.67 31.72c-26.57 0-43.51 17.93-43.51 42.84 0 26.24 16.77 43.68 45 43.68 12.45 0 26.57-4.32 35.21-13.29l-12.95-12.79c-4.65 4.82-14.45 7.64-21.92 7.64-14.28 0-23.08-7.31-24.41-17.44h63.93c3.16-33.7-13.94-50.64-41.35-50.64zM114.42 65.6c2.99-10.63 11.96-15.94 22.92-15.94 11.62 0 19.93 5.31 21.26 15.94h-44.18zM218.55 98.81c-6.31 0-10.63-3.82-10.63-11.62V51.81h22.75V34.37h-22.58V11.13l-20.26 2.16v73.9c0 20.43 11.62 30.56 29.39 29.89 6.14-.17 10.96-1.16 16.77-3.49l-5.65-17.27c-2.98 1.49-6.64 2.49-9.79 2.49zM372.07 32.05c-8.3 0-16.77 1.5-23.08 11.63l-1.49-9.47h-18.77v81.87h20.26V72.9c0-15.11 9.8-20.76 20.43-20.76 6.64 0 9.46.83 13.61 4.31l9.13-17.6c-4.49-4.48-11.62-6.8-20.09-6.8zM431.68 32.55c-26.07 0-42.35 19.26-42.35 42.68 0 23.58 15.94 42.68 42.51 42.68s42.68-19.1 42.68-42.68c0-23.42-16.77-42.68-42.84-42.68zm.17 66.76c-14.78 0-22.25-11.62-22.25-24.08 0-12.29 7.64-24.25 22.25-24.25 13.62 0 22.25 11.96 22.25 24.25 0 12.45-7.48 24.08-22.25 24.08zM544.09 76.06c0 12.45-8.47 22.92-20.92 22.92-12.95 0-19.76-9.47-19.76-21.92V34.21h-20.26v43.01c0 25.41 14.28 40.19 33.88 40.19 11.46 0 19.26-3.99 27.73-12.29l1.33 11.13h18.1V34.21H544.1v41.85zM622.12 32.88c-10.3 0-18.6 4.15-26.9 12.29l-1.33-11.13h-18.1v82.03h20.09V74.23c0-12.45 8.47-22.92 20.92-22.92 12.95 0 19.76 9.47 19.76 21.92v42.84h20.26v-43c.01-25.74-15.44-40.19-34.7-40.19zM733.39 0v45.34c-4.82-8.47-18.27-13.12-26.9-13.12-23.91 0-41.68 14.61-41.68 42.84 0 26.9 18.1 42.84 42.18 42.84 9.96 0 20.09-3.32 26.41-13.12l1.33 11.29h18.93V0h-20.27zm-25.08 99.14c-12.95 0-23.25-9.8-23.25-24.08 0-14.78 10.3-23.91 23.25-23.91 12.79 0 23.75 9.63 23.75 23.91 0 14.78-10.96 24.08-23.75 24.08z"/><path class="st0" d="M136.67 31.72c-26.57 0-43.51 17.93-43.51 42.84 0 26.24 16.77 43.68 45 43.68 12.45 0 26.57-4.32 35.21-13.29l-12.95-12.79c-4.65 4.82-14.45 7.64-21.92 7.64-14.28 0-23.08-7.31-24.41-17.44h63.93c3.16-33.7-13.94-50.64-41.35-50.64zM114.42 65.6c2.99-10.63 11.96-15.94 22.92-15.94 11.62 0 19.93 5.31 21.26 15.94h-44.18zM218.55 98.81c-6.31 0-10.63-3.82-10.63-11.62V51.81h22.75V34.37h-22.58V11.13l-20.26 2.16v73.9c0 20.43 11.62 30.56 29.39 29.89 6.14-.17 10.96-1.16 16.77-3.49l-5.65-17.27c-2.98 1.49-6.64 2.49-9.79 2.49zM372.07 32.05c-8.3 0-16.77 1.5-23.08 11.63l-1.49-9.47h-18.77v81.87h20.26V72.9c0-15.11 9.8-20.76 20.43-20.76 6.64 0 9.46.83 13.61 4.31l9.13-17.6c-4.49-4.48-11.62-6.8-20.09-6.8zM431.68 32.55c-26.07 0-42.35 19.26-42.35 42.68 0 23.58 15.94 42.68 42.51 42.68s42.68-19.1 42.68-42.68c0-23.42-16.77-42.68-42.84-42.68zm.17 66.76c-14.78 0-22.25-11.62-22.25-24.08 0-12.29 7.64-24.25 22.25-24.25 13.62 0 22.25 11.96 22.25 24.25 0 12.45-7.48 24.08-22.25 24.08zM544.09 76.06c0 12.45-8.47 22.92-20.92 22.92-12.95 0-19.76-9.47-19.76-21.92V34.21h-20.26v43.01c0 25.41 14.28 40.19 33.88 40.19 11.46 0 19.26-3.99 27.73-12.29l1.33 11.13h18.1V34.21H544.1v41.85zM622.12 32.88c-10.3 0-18.6 4.15-26.9 12.29l-1.33-11.13h-18.1v82.03h20.09V74.23c0-12.45 8.47-22.92 20.92-22.92 12.95 0 19.76 9.47 19.76 21.92v42.84h20.26v-43c.01-25.74-15.44-40.19-34.7-40.19zM733.39 0v45.34c-4.82-8.47-18.27-13.12-26.9-13.12-23.91 0-41.68 14.61-41.68 42.84 0 26.9 18.1 42.84 42.18 42.84 9.96 0 20.09-3.32 26.41-13.12l1.33 11.29h18.93V0h-20.27zm-25.08 99.14c-12.95 0-23.25-9.8-23.25-24.08 0-14.78 10.3-23.91 23.25-23.91 12.79 0 23.75 9.63 23.75 23.91 0 14.78-10.96 24.08-23.75 24.08zM303.38 35.55c-9.66-5.43-29.02-5.82-39.47-2.97-13.24 3.61-21.32 13.73-21.94 26.37l19.21 4.39c1.53-9.64 4.41-12.87 12.6-14.19 6.04-.98 14.47-.78 19.16 4.04 2.59 2.66 2.87 3.91 2.47 8.26-.19 2.07-4.37 2.77-6.85 3.3-8.98 1.95-23.09 2.99-31.93 5.42-17.42 4.78-19.86 25.88-11.13 36.77 9.02 11.24 31.62 13.76 44.31 5.45 1.92-1.26 3.77-2.64 6.2-4.34v7.83h20.87c0-6.98-.03-14.17.01-20.99.06-12.45.55-24.91.1-37.33-.38-9.45-5.28-17.33-13.61-22.01zm-15.89 61.59c-2.61 1.52-5.62 2.35-8.61 2.93-3.8.73-7.74 1.4-11.52.58-2.64-.58-5.3-1.86-6.68-4.18-.86-1.44-1.15-2.88-1.1-4.56.05-1.67.7-2.85 1.69-4.2 1.06-1.47 2.7-2.4 4.36-3.13 5.31-2.33 11.17-2.98 16.94-3.6l9.45-1.02c.79-.08 1.58-.17 2.36-.25.38-.04.76-.09 1.13-.12.43-.04.55-.08.56.34.04 1.5-.15 2.83-.32 4.22-.18 1.48-.52 2.65-1.02 4.06-1.11 3.11-3.06 5.96-5.71 7.94-.49.35-1.01.69-1.53.99zM42.51 117.89C15.94 117.89 0 98.8 0 75.22c0-23.41 16.27-42.67 42.34-42.67h50.69S90.86 45.9 78.19 51l-35.58-.02c-14.61 0-22.36 11.95-22.36 24.24 0 12.45 7.47 24.08 22.25 24.08 14.78 0 22.25-11.62 22.25-24.08 0-6.77-2.62-13.42-7.25-18.05h24.01c2.38 5.49 3.66 11.61 3.66 18.05 0 13.44-5.24 25.42-14.67 33.24 11.7 6.92 14.67 16.36 14.67 26.39 0 23.29-17.81 37.68-42.31 37.68-22.92 0-40.43-13.04-42.59-33.38l20.62-2.21C22.1 146.71 31.66 153 42.87 153c11.99 0 21.41-6.51 21.41-18.16 0-11.64-10.94-16.95-21.38-16.96l-.39.01z"/></g></svg>